<svg id="Layer_1" data-name="Layer 1" xmlns="http://www.w3.org/2000/svg" viewBox="0 0 485.62 95.85"><defs><style>.cls-1{fill:#fff;}.cls-2{fill:#585858;}.cls-3{fill:none;stroke:#585858;stroke-linecap:round;stroke-width:4px;stroke-dasharray:20 20;}</style></defs><path class="cls-1" d="M181.53,54.78l-17.5,21,36,2-1.5,12.5,47.5-2,70-2,66.5,1.5,63.5,7,8.5,4,5-4,2,2.5,6.5-2.5,5.5,4,9.5-2.5-1-9-5-5-1,5-2.5,2-7.5-9-2,1h-10.5l-10.5-8-30.5-14-35-13-38-13L291,21.78l-37.5-8.5-22.5-4-19,17.5v6h-7.5Z" transform="translate(-1.03 -6.62)"/><path class="cls-2" d="M164,75.78l-1.91-1.61-3.27,3.89,5.07.21Zm41.19-43.21v-2.5h-.32l-.31.08Zm7.67,0v2.5h2.86l-.38-2.84Zm-.79-5.82-1.68-1.86-1,.89.18,1.3ZM231.41,9.28l.38-2.48-1.17-.18-.89.8Zm220.4,69.61-1.26,2.16.1.06.1,0Zm4,1.86L454.72,83l.5.24h.56Zm9.79,0,1.87-1.66-.74-.84h-1.13ZM473,89.19l-1.87,1.66,1.36,1.54,1.77-1Zm3.12-1.83,1.27,2.16,1.07-.63.14-1.23Zm.53-4.5L478.35,81l-3.59-3.21-.56,4.78Zm5,4.5,2.47-.37L484,86.1l-.67-.6ZM483,96.1l1.29,2.14,1.43-.87-.25-1.65Zm-3.5,2.12.37,2.47.5-.07.42-.26Zm-6.29.93L471.55,101l.88.81,1.18-.17Zm-4.76-4.37,1.69-1.85-1.24-1.13-1.51.71ZM461,98.28l-2.39.71.83,2.78,2.62-1.23ZM459.75,94l2.39-.71L460.87,89l-3,3.31ZM455,99.28l-1.27,2.14,1.76,1,1.37-1.52Zm-7.4-4.5,1.29-2.14-.47-.29-.56-.06Zm-52.39-5,.24-2.49h-.09ZM346,86.83l.14-2.49H346ZM198.6,89.75l-2.48-.32-.39,3.06,3.08-.25Zm1.59-12.45,2.48.32.34-2.7-2.72-.11Zm51-66.2a2.5,2.5,0,0,0-2.56,4.29Zm40.46,31a2.5,2.5,0,1,0,2.78-4.16ZM184.48,73.65a2.5,2.5,0,0,0,1.78,4.67Zm104.6-28.58a2.5,2.5,0,1,0-1-4.89ZM159.93,74.35a2.5,2.5,0,0,0,3.79,3.27Zm46.76-39.49a2.5,2.5,0,0,0-2.94-4.05Zm-1.08-4.79a2.5,2.5,0,0,0-.26,5ZM451.76,86.54a2.5,2.5,0,1,0,1.69-4.71ZM160.9,74.28a2.5,2.5,0,1,0,.27,5ZM202.82,78a2.5,2.5,0,0,0-4.93-.88Zm-4.75,12.27-2.46-.45L195,93l3.22-.24Zm183,.41a2.5,2.5,0,0,0,.21-5Zm-169-64.21-1.79-1.75-.82.84.12,1.17ZM232.47,9.54l.4-2.47L232,6.93l-.76.43ZM453.93,79.69l-1.25,2.16.9.52,1-.27Zm2.91-.8,2.49.17.23-3.5-3.38.92Zm-.27,4-2.49-.16-.25,3.71,3.53-1.18Zm9.53-3.17,2-1.48L467,76.74l-1.73.58Zm7.14,9.79-2,1.47,1.08,1.48,1.73-.58Zm3.18-1.06.79,2.37,1.64-.54.06-1.73Zm.26-6.64,1.46-2L474.37,77l-.19,4.66Zm3.7,2.67,1.52-2,0,0,0,0ZM484,96.1v2.5h2.1l.36-2.07Zm-5.5,0V93.6H476v2.5Zm0,1.85.49,2.45,2-.4V98ZM473.24,99l-1.77,1.77.95.94,1.31-.26Zm-4.5-4.5,1.77-1.77-1.25-1.25-1.6.77ZM461.6,98l-2.43.61.75,3,2.76-1.34Zm-1.32-5.29,2.42-.61-1.22-4.9-3.16,3.95Zm-11.61,0a2.5,2.5,0,0,0-2.55,4.3ZM213.72,24.26a2.5,2.5,0,0,0-.6,5ZM362.47,59.85a2.5,2.5,0,0,0,1.41-4.8ZM165.94,77.38c5.82-6.92,14.66-17.32,22.75-26.16,4.05-4.43,7.88-8.43,11-11.4,1.58-1.49,3-2.69,4.08-3.55a13.58,13.58,0,0,1,1.41-1,3.46,3.46,0,0,1,.45-.24l.13-.05,0,0h0l-1.25-4.84a11.72,11.72,0,0,0-3.82,2.15,56.48,56.48,0,0,0-4.48,3.88c-3.28,3.1-7.21,7.21-11.29,11.67-8.16,8.92-17.06,19.39-22.88,26.32Zm39.28-42.31h7.67v-5h-7.67Zm10.15-2.84-.8-5.82-4.95.67.79,5.83Zm-1.6-3.63,19.32-17.47-3.36-3.71L210.42,24.89ZM231,11.75c45.8,7.05,153.69,30.8,219.52,69.3l2.52-4.32c-66.68-39-175.36-62.86-221.28-69.93ZM450.75,81.16l4,1.85,2.12-4.53-4-1.85Zm5,2.09h9.79v-5h-9.79Zm7.91-.85,7.47,8.45,3.74-3.31-7.46-8.45Zm10.6,8.95,3.13-1.83-2.53-4.31L471.77,87Zm4.34-3.69.53-4.5-5-.59-.53,4.5ZM475,84.73l5,4.5,3.33-3.73-5-4.5Zm4.23,3,1.32,8.73,4.94-.75L484.18,87Zm2.5,6.22-3.5,2.12,2.58,4.28,3.5-2.12Zm-2.58,1.78-6.29.94.74,4.95,6.29-.94Zm-4.23,1.57-4.76-4.38-3.38,3.69,4.76,4.37Zm-7.51-4.8L460,96l2.12,4.53,7.45-3.5Zm-4,5-1.29-4.29-4.79,1.43L458.64,99Zm-5.54-5.25-4.76,5.29,3.71,3.35,4.77-5.3Zm-1.61,4.83-7.41-4.5-2.59,4.27,7.41,4.5Zm-8.46-4.85-52.39-5-.48,5,52.39,5Zm-52.48-5-49.22-2.91-.29,5L395,92.24ZM346,84.33c-37.27,0-119.09.58-147.58,2.92l.41,5C227,89.92,308.62,89.33,346,89.33Zm-144.9,5.73,1.59-12.44-5-.63-1.59,12.44Zm-.79-15.25-36.15-1.53-.22,5,36.16,1.53Zm48.36-59.42c9.88,5.92,32.29,19.51,43,26.67l2.78-4.16C283.59,30.66,261.08,17,251.21,11.1ZM186.26,78.32c22.53-8.61,74.51-27.24,102.82-33.25l-1-4.89C259.3,46.28,207,65.06,184.48,73.65Zm-22.54-.7c9-10.44,30.11-33.43,43-42.76l-2.94-4.05C190.35,40.54,168.9,64,159.93,74.35Zm41.63-42.55c40,2,145.51,15.15,246.41,51.47l1.69-4.71C352,45.31,246,32.11,205.61,30.07Zm-44.18,44.2c25.9-1.4,119.59.21,286.14,18l.53-5C281.22,74.5,187.21,72.86,160.9,74.28Zm36.72-2.14-2.28,12.7,4.92.89L202.82,78Zm.37,15.64c28.07-2.07,104-5.4,182.8-2.08l.21-5c-79-3.33-155.15,0-183.38,2.08Zm16.85-61.52-.53-5-5,.52.53,5Zm-1.23-3c4-4.06,13.39-12.89,19.81-16.51l-2.45-4.36c-7.12,4-17,13.32-20.93,17.37ZM232.07,12c46.25,7.49,155,32,220.61,69.84l2.5-4.33c-66.46-38.36-176-62.94-222.31-70.45ZM454.58,82.1l2.91-.8-1.31-4.82-2.91.8Zm-.24-3.37-.26,4,5,.33.26-4Zm3,6.5,9.53-3.17-1.58-4.74-9.53,3.17Zm6.72-4.07L471.22,91l4-2.94-7.14-9.8ZM474,91.85l3.18-1.06-1.59-4.74-3.17,1.06Zm4.88-3.33.27-6.65-5-.19-.26,6.64Zm-3.69-4.72,3.7,2.68,2.93-4-3.71-2.68Zm3.64,2.64a4.33,4.33,0,0,1,1,1.32A13.37,13.37,0,0,1,481,90.35a12.59,12.59,0,0,1,.62,5.31l4.92.87a17.32,17.32,0,0,0-.76-7.66,19.21,19.21,0,0,0-1.5-3.56,9.24,9.24,0,0,0-2.33-2.84ZM484,93.6h-5.5v5H484Zm-8,2.5V98h5V96.1Zm2-.6-5.29,1.06,1,4.9L479,100.4Zm-3,1.74-4.5-4.5L467,96.28l4.5,4.5Zm-7.35-5-7.15,3.44,2.17,4.5,7.15-3.44ZM464,97.35l-1.32-5.3-4.85,1.21,1.32,5.3Zm-5.7-6.25L453,97.71l3.91,3.13,5.29-6.62Zm-2.06,6-7.59-4.52-2.55,4.3,7.59,4.51ZM213.12,29.23c25.27,3,90.57,13.41,149.35,30.62l1.41-4.8C304.76,37.74,239.16,27.32,213.72,24.26Z" transform="translate(-1.03 -6.62)"/><path class="cls-3" d="M3,25.28c29.16-6,107.79-14.49,189,0" transform="translate(-1.03 -6.62)"/></svg>